<svg width="424" height="96" viewBox="0 0 424 96" fill="none" xmlns="http://www.w3.org/2000/svg">
<path d="M85.1758 37.4062L91.75 55.9688L98.2891 37.4062H105.215V63H99.9238V56.0039L100.451 43.9277L93.543 63H89.9219L83.0312 43.9453L83.5586 56.0039V63H78.2852V37.4062H85.1758ZM120.508 63C120.273 62.543 120.104 61.9746 119.998 61.2949C118.768 62.666 117.168 63.3516 115.199 63.3516C113.336 63.3516 111.789 62.8125 110.559 61.7344C109.34 60.6562 108.73 59.2969 108.73 57.6562C108.73 55.6406 109.475 54.0938 110.963 53.0156C112.463 51.9375 114.625 51.3926 117.449 51.3809H119.787V50.291C119.787 49.4121 119.559 48.709 119.102 48.1816C118.656 47.6543 117.947 47.3906 116.975 47.3906C116.119 47.3906 115.445 47.5957 114.953 48.0059C114.473 48.416 114.232 48.9785 114.232 49.6934H109.152C109.152 48.5918 109.492 47.5723 110.172 46.6348C110.852 45.6973 111.812 44.9648 113.055 44.4375C114.297 43.8984 115.691 43.6289 117.238 43.6289C119.582 43.6289 121.439 44.2207 122.811 45.4043C124.193 46.5762 124.885 48.2285 124.885 50.3613V58.6055C124.896 60.4102 125.148 61.7754 125.641 62.7012V63H120.508ZM116.307 59.4668C117.057 59.4668 117.748 59.3027 118.381 58.9746C119.014 58.6348 119.482 58.1836 119.787 57.6211V54.3516H117.889C115.346 54.3516 113.992 55.2305 113.828 56.9883L113.811 57.2871C113.811 57.9199 114.033 58.4414 114.479 58.8516C114.924 59.2617 115.533 59.4668 116.307 59.4668ZM139.475 48.7441C138.783 48.6504 138.174 48.6035 137.646 48.6035C135.725 48.6035 134.465 49.2539 133.867 50.5547V63H128.787V43.9805H133.586L133.727 46.248C134.746 44.502 136.158 43.6289 137.963 43.6289C138.525 43.6289 139.053 43.7051 139.545 43.8574L139.475 48.7441ZM149.371 56.7949L152.904 43.9805H158.213L151.797 63H146.945L140.529 43.9805H145.838L149.371 56.7949ZM168.971 63.3516C166.182 63.3516 163.908 62.4961 162.15 60.7852C160.404 59.0742 159.531 56.7949 159.531 53.9473V53.4551C159.531 51.5449 159.9 49.8398 160.639 48.3398C161.377 46.8281 162.42 45.668 163.768 44.8594C165.127 44.0391 166.674 43.6289 168.408 43.6289C171.01 43.6289 173.055 44.4492 174.543 46.0898C176.043 47.7305 176.793 50.0566 176.793 53.0684V55.1426H164.682C164.846 56.3848 165.338 57.3809 166.158 58.1309C166.99 58.8809 168.039 59.2559 169.305 59.2559C171.262 59.2559 172.791 58.5469 173.893 57.1289L176.389 59.9238C175.627 61.002 174.596 61.8457 173.295 62.4551C171.994 63.0527 170.553 63.3516 168.971 63.3516ZM168.391 47.7422C167.383 47.7422 166.562 48.082 165.93 48.7617C165.309 49.4414 164.91 50.4141 164.734 51.6797H171.801V51.2754C171.777 50.1504 171.473 49.2832 170.887 48.6738C170.301 48.0527 169.469 47.7422 168.391 47.7422ZM185.055 63H179.957V36H185.055V63ZM211.826 56.2852C211.826 55.2891 211.475 54.5273 210.771 54C210.068 53.4609 208.803 52.8984 206.975 52.3125C205.146 51.7148 203.699 51.1289 202.633 50.5547C199.727 48.9844 198.273 46.8691 198.273 44.209C198.273 42.8262 198.66 41.5957 199.434 40.5176C200.219 39.4277 201.338 38.5781 202.791 37.9688C204.256 37.3594 205.896 37.0547 207.713 37.0547C209.541 37.0547 211.17 37.3887 212.6 38.0566C214.029 38.7129 215.137 39.6445 215.922 40.8516C216.719 42.0586 217.117 43.4297 217.117 44.9648H211.844C211.844 43.793 211.475 42.8848 210.736 42.2402C209.998 41.584 208.961 41.2559 207.625 41.2559C206.336 41.2559 205.334 41.5312 204.619 42.082C203.904 42.6211 203.547 43.3359 203.547 44.2266C203.547 45.0586 203.963 45.7559 204.795 46.3184C205.639 46.8809 206.875 47.4082 208.504 47.9004C211.504 48.8027 213.689 49.9219 215.061 51.2578C216.432 52.5938 217.117 54.2578 217.117 56.25C217.117 58.4648 216.279 60.2051 214.604 61.4707C212.928 62.7246 210.672 63.3516 207.836 63.3516C205.867 63.3516 204.074 62.9941 202.457 62.2793C200.84 61.5527 199.604 60.5625 198.748 59.3086C197.904 58.0547 197.482 56.6016 197.482 54.9492H202.773C202.773 57.7734 204.461 59.1855 207.836 59.1855C209.09 59.1855 210.068 58.9336 210.771 58.4297C211.475 57.9141 211.826 57.1992 211.826 56.2852ZM226.451 39.3047V43.9805H229.703V47.707H226.451V57.1992C226.451 57.9023 226.586 58.4062 226.855 58.7109C227.125 59.0156 227.641 59.168 228.402 59.168C228.965 59.168 229.463 59.127 229.896 59.0449V62.8945C228.9 63.1992 227.875 63.3516 226.82 63.3516C223.258 63.3516 221.441 61.5527 221.371 57.9551V47.707H218.594V43.9805H221.371V39.3047H226.451ZM243.221 48.7441C242.529 48.6504 241.92 48.6035 241.393 48.6035C239.471 48.6035 238.211 49.2539 237.613 50.5547V63H232.533V43.9805H237.332L237.473 46.248C238.492 44.502 239.904 43.6289 241.709 43.6289C242.271 43.6289 242.799 43.7051 243.291 43.8574L243.221 48.7441ZM251.043 63H245.945V43.9805H251.043V63ZM245.646 39.0586C245.646 38.2969 245.898 37.6699 246.402 37.1777C246.918 36.6855 247.615 36.4395 248.494 36.4395C249.361 36.4395 250.053 36.6855 250.568 37.1777C251.084 37.6699 251.342 38.2969 251.342 39.0586C251.342 39.832 251.078 40.4648 250.551 40.957C250.035 41.4492 249.35 41.6953 248.494 41.6953C247.639 41.6953 246.947 41.4492 246.42 40.957C245.904 40.4648 245.646 39.832 245.646 39.0586ZM262.152 55.3711L260.324 57.1992V63H255.244V36H260.324V50.959L261.309 49.6934L266.178 43.9805H272.277L265.404 51.9082L272.875 63H267.039L262.152 55.3711ZM282.877 63.3516C280.088 63.3516 277.814 62.4961 276.057 60.7852C274.311 59.0742 273.438 56.7949 273.438 53.9473V53.4551C273.438 51.5449 273.807 49.8398 274.545 48.3398C275.283 46.8281 276.326 45.668 277.674 44.8594C279.033 44.0391 280.58 43.6289 282.314 43.6289C284.916 43.6289 286.961 44.4492 288.449 46.0898C289.949 47.7305 290.699 50.0566 290.699 53.0684V55.1426H278.588C278.752 56.3848 279.244 57.3809 280.064 58.1309C280.896 58.8809 281.945 59.2559 283.211 59.2559C285.168 59.2559 286.697 58.5469 287.799 57.1289L290.295 59.9238C289.533 61.002 288.502 61.8457 287.201 62.4551C285.9 63.0527 284.459 63.3516 282.877 63.3516ZM282.297 47.7422C281.289 47.7422 280.469 48.082 279.836 48.7617C279.215 49.4414 278.816 50.4141 278.641 51.6797H285.707V51.2754C285.684 50.1504 285.379 49.2832 284.793 48.6738C284.207 48.0527 283.375 47.7422 282.297 47.7422ZM321.109 41.6777H313.27V63H307.996V41.6777H300.262V37.4062H321.109V41.6777ZM330.971 63.3516C328.182 63.3516 325.908 62.4961 324.15 60.7852C322.404 59.0742 321.531 56.7949 321.531 53.9473V53.4551C321.531 51.5449 321.9 49.8398 322.639 48.3398C323.377 46.8281 324.42 45.668 325.768 44.8594C327.127 44.0391 328.674 43.6289 330.408 43.6289C333.01 43.6289 335.055 44.4492 336.543 46.0898C338.043 47.7305 338.793 50.0566 338.793 53.0684V55.1426H326.682C326.846 56.3848 327.338 57.3809 328.158 58.1309C328.99 58.8809 330.039 59.2559 331.305 59.2559C333.262 59.2559 334.791 58.5469 335.893 57.1289L338.389 59.9238C337.627 61.002 336.596 61.8457 335.295 62.4551C333.994 63.0527 332.553 63.3516 330.971 63.3516ZM330.391 47.7422C329.383 47.7422 328.562 48.082 327.93 48.7617C327.309 49.4414 326.91 50.4141 326.734 51.6797H333.801V51.2754C333.777 50.1504 333.473 49.2832 332.887 48.6738C332.301 48.0527 331.469 47.7422 330.391 47.7422ZM352.715 63C352.48 62.543 352.311 61.9746 352.205 61.2949C350.975 62.666 349.375 63.3516 347.406 63.3516C345.543 63.3516 343.996 62.8125 342.766 61.7344C341.547 60.6562 340.938 59.2969 340.938 57.6562C340.938 55.6406 341.682 54.0938 343.17 53.0156C344.67 51.9375 346.832 51.3926 349.656 51.3809H351.994V50.291C351.994 49.4121 351.766 48.709 351.309 48.1816C350.863 47.6543 350.154 47.3906 349.182 47.3906C348.326 47.3906 347.652 47.5957 347.16 48.0059C346.68 48.416 346.439 48.9785 346.439 49.6934H341.359C341.359 48.5918 341.699 47.5723 342.379 46.6348C343.059 45.6973 344.02 44.9648 345.262 44.4375C346.504 43.8984 347.898 43.6289 349.445 43.6289C351.789 43.6289 353.646 44.2207 355.018 45.4043C356.4 46.5762 357.092 48.2285 357.092 50.3613V58.6055C357.104 60.4102 357.355 61.7754 357.848 62.7012V63H352.715ZM348.514 59.4668C349.264 59.4668 349.955 59.3027 350.588 58.9746C351.221 58.6348 351.689 58.1836 351.994 57.6211V54.3516H350.096C347.553 54.3516 346.199 55.2305 346.035 56.9883L346.018 57.2871C346.018 57.9199 346.24 58.4414 346.686 58.8516C347.131 59.2617 347.74 59.4668 348.514 59.4668ZM365.758 43.9805L365.916 46.1074C367.264 44.4551 369.086 43.6289 371.383 43.6289C373.832 43.6289 375.514 44.5957 376.428 46.5293C377.764 44.5957 379.668 43.6289 382.141 43.6289C384.203 43.6289 385.738 44.2324 386.746 45.4395C387.754 46.6348 388.258 48.4395 388.258 50.8535V63H383.16V50.8711C383.16 49.793 382.949 49.0078 382.527 48.5156C382.105 48.0117 381.361 47.7598 380.295 47.7598C378.771 47.7598 377.717 48.4863 377.131 49.9395L377.148 63H372.068V50.8887C372.068 49.7871 371.852 48.9902 371.418 48.498C370.984 48.0059 370.246 47.7598 369.203 47.7598C367.762 47.7598 366.719 48.3574 366.074 49.5527V63H360.994V43.9805H365.758Z" fill="white"/>
<path d="M59.5494 50.3263L55.9488 49.0079L47.208 53.4029L54.5985 60.9479H57.8528L59.5494 50.3263Z" fill="#F43735"/>
<path d="M2.89474 49.0079L0 50.7199L1.69682 60.9479H4.95113L3.38636 49.0079H2.89474Z" fill="#F43735"/>
<path d="M35.9387 49.3141L46.1634 77.6055L46.1894 77.6157V77.6055L52.9361 72.0525L54.5986 60.9479L55.9489 49.0079L35.9387 49.3141Z" fill="#F43735"/>
<path d="M2.92578 49.2347L4.14727 58.2481L6.61364 72.0525L12.5942 77.6055L27.1992 52.6487L2.92578 49.2347Z" fill="#F43735"/>
<path d="M46.9774 49.0463L11.7842 49.1969L12.5942 77.6055L12.571 78.7537L16.0169 82.5889H42.7431L46.1893 79.3799V77.6157L46.1632 77.6055L46.9774 49.0463Z" fill="#F43735"/>
<path d="M19.5918 15.2771C12.6071 17.5149 4.30237 22.9279 2.46313 35.9829C2.46313 35.9629 2.4823 35.9629 2.50147 35.9429C2.84647 35.6029 5.95147 32.8829 13.8098 32.7229C20.0148 32.5749 22.04 35.5185 22.675 37.0559L24.5174 34.4551C24.5174 34.4551 29.3881 27.6835 28.3615 22.3435C27.6799 18.7985 21.7967 16.3305 19.5918 15.2771Z" fill="#F43735"/>
<path d="M39.7695 15.6129L40.1298 15.3565C37.2188 14.3933 33.8221 13.7917 29.8331 13.7229C29.8331 13.7229 25.1266 13.5039 19.5918 15.2771C25.1179 17.9175 24.5174 34.4551 24.5174 34.4551L22.6749 37.0559C22.8971 37.5939 22.9523 37.9629 22.9523 37.9629L35.9473 37.7829C35.9473 37.7829 35.893 37.2381 35.9435 36.4419L34.7024 34.4551C34.7024 34.4551 39.9391 30.1473 40.7943 25.1695C41.456 21.3187 37.3236 16.7137 39.7695 15.6129Z" fill="#F43735"/>
<path d="M40.1298 15.3565L39.7695 15.6129C37.5463 16.6133 36.2896 19.7817 35.5823 23.2419C34.5053 28.5101 34.7024 34.4551 34.7024 34.4551L35.9434 36.4419C36.0923 34.1017 37.157 29.5711 43.2497 30.1829C51.1847 31.0029 56.8389 38.7229 57.1839 39.2029C57.2031 39.2229 57.2031 39.2229 57.2031 39.2229C57.2031 39.2229 57.2031 39.2229 57.2031 39.2029V39.1829C57.1868 38.2135 56.6609 20.8265 40.1298 15.3565Z" fill="#F43735"/>
<path d="M57.2988 40.1629L57.0496 41.8629L54.8773 58.4825C51.8298 60.0423 49.6321 62.6629 48.4055 65.4029C46.2205 70.3029 45.3771 76.0229 45.3771 76.0229L42.3296 77.4429L37.0205 77.2629L34.1455 75.3629L22.9521 74.9429L20.6713 76.9629L16.5505 77.4029L13.618 74.3429C13.4263 70.2829 11.5863 67.6229 10.7238 65.2429C9.11379 60.8629 7.06295 59.1029 7.06295 59.1029L4.14962 58.2429L1.94546 42.0029L1.69629 40.1629C1.69629 40.1629 1.69629 39.8229 1.75379 39.2629C1.83046 38.5029 2.00296 37.3229 2.46296 35.9829C2.46296 35.9629 2.48212 35.9629 2.50129 35.9429C3.45962 33.0829 5.66379 29.5229 10.628 27.8029C19.6555 24.6629 23.0671 29.6829 24.5238 34.4629H34.7013C39.9721 17.5829 55.8038 30.8029 57.2029 39.1829V39.2029C57.2029 39.2229 57.2029 39.2229 57.2029 39.2229C57.2604 39.5429 57.2988 39.8629 57.2988 40.1629Z" fill="#FFDD4D"/>
<path d="M9.28809 47.8191C9.28809 47.8191 18.4576 49.4867 22.9579 49.3141L20.5391 52.6487C20.5391 52.6487 14.6885 52.4761 9.85063 51.4413L9.28809 47.8191Z" fill="white"/>
<path d="M49.6084 47.8191C49.6084 47.8191 40.4391 49.4867 35.9387 49.3141L38.3576 52.6487C38.3576 52.6487 44.2082 52.4761 49.0458 51.4413L49.6084 47.8191Z" fill="white"/>
<path d="M57.2029 39.2229C57.2029 39.2229 57.2029 39.2229 57.2029 39.2029H57.1838L51.9896 46.3029L49.4404 47.0829C49.0188 47.1629 40.2596 48.7229 35.9663 48.5629C35.9471 48.5629 35.9471 48.5829 35.9279 48.5829L22.9521 48.5629C22.933 48.5629 22.933 48.5629 22.933 48.5629C18.6396 48.7229 9.88045 47.1629 9.45879 47.0829L6.90962 46.3029L1.75379 39.2629C1.69629 39.8229 1.69629 40.1629 1.69629 40.1629L1.94546 42.0029L5.91296 47.4029C5.98962 47.5429 6.12379 47.6229 6.27712 47.6829L8.65379 48.4029L9.13295 51.5629C9.19045 51.8629 9.42045 52.1029 9.70795 52.1829C14.5571 53.2029 20.2688 53.3829 20.518 53.4029H20.5371C20.7671 53.4029 20.978 53.2829 21.1121 53.1029L23.3163 50.0629L35.583 50.0829L37.7871 53.1029C37.9213 53.2829 38.1321 53.4029 38.3621 53.4029C38.3621 53.4029 38.3621 53.4029 38.3813 53.4029C38.6113 53.3829 44.3421 53.2029 49.1913 52.1829C49.4788 52.1029 49.7088 51.8629 49.7471 51.5629L50.2454 48.4029L52.6221 47.6829C52.7754 47.6229 52.8904 47.5429 52.9863 47.4029L57.0496 41.8629L57.2988 40.1629C57.2988 39.8629 57.2604 39.5429 57.2029 39.2229ZM20.1921 51.8829C18.8888 51.8229 14.4038 51.5829 10.4746 50.8029L10.1488 48.7229C12.3721 49.1029 17.7388 49.9629 21.5146 50.0629L20.1921 51.8829ZM48.4246 50.8029C44.4954 51.5829 40.0105 51.8229 38.7071 51.8829L37.3846 50.0629C41.1604 49.9629 46.5271 49.1029 48.7313 48.7229L48.4246 50.8029Z" fill="#F43735"/>
<path d="M10.718 65.2553C10.718 65.2553 12.3253 69.8585 12.5074 74.8123L16.1232 78.5875V73.5795C16.1232 73.5795 12.9829 68.2315 10.718 65.2553Z" fill="#EFBC3F"/>
<path d="M38.8511 70.3049H20.1521L16.1233 73.5795V78.5875V78.5877H20.6533L23.2061 76.2717L33.4003 76.2725L35.9388 78.9069H42.3326L42.4069 73.2795L38.8511 70.3049Z" fill="#FFD24A"/>
<path d="M42.4069 73.2795L42.3325 78.9069L46.3096 76.0615C46.3096 76.0615 47.1301 69.7303 48.4101 65.3945L42.4069 73.2795Z" fill="#EFBC3F"/>
</svg>
